<?xml version="1.0" standalone="no"?>
<!DOCTYPE svg PUBLIC "-//W3C//DTD SVG 20010904//EN"
 "http://www.w3.org/TR/2001/REC-SVG-20010904/DTD/svg10.dtd">
<svg version="1.0" xmlns="http://www.w3.org/2000/svg"
 width="600.000000pt" height="600.000000pt" viewBox="0 0 600.000000 600.000000"
 preserveAspectRatio="xMidYMid meet">
<metadata>
Created by potrace 1.11, written by Peter Selinger 2001-2013
</metadata>
<g transform="translate(0.000000,600.000000) scale(0.100000,-0.100000)"
fill="#000000" stroke="none">
<path d="M2889 5946 c-2 -2 -49 -7 -104 -10 -55 -4 -111 -9 -125 -10 -14 -2
-50 -7 -80 -11 -231 -29 -571 -128 -790 -229 -41 -19 -78 -35 -82 -36 -4 0
-44 -21 -88 -46 -44 -24 -82 -44 -85 -44 -9 0 -205 -127 -289 -187 -228 -164
-471 -401 -616 -599 -24 -32 -46 -61 -50 -64 -11 -9 -145 -215 -172 -265 -178
-322 -312 -687 -354 -960 -5 -27 -9 -52 -9 -55 -2 -5 -14 -87 -20 -135 -25
-178 -25 -508 0 -700 2 -16 6 -46 9 -65 28 -220 110 -522 202 -739 63 -147
177 -362 260 -486 43 -66 81 -122 84 -125 3 -3 17 -21 30 -40 70 -100 262
-310 390 -425 201 -182 504 -347 873 -474 200 -69 482 -137 649 -156 25 -3 57
-8 69 -10 116 -23 551 -22 699 0 14 2 45 7 70 10 100 14 250 58 335 100 215
105 328 255 339 448 9 173 -62 306 -225 418 -165 114 -377 191 -829 299 -96
23 -272 67 -390 97 -118 30 -222 56 -230 58 -146 35 -578 177 -706 233 -327
141 -636 417 -771 687 -42 83 -80 192 -103 294 -28 129 -31 161 -35 346 -6
361 72 641 260 924 193 292 491 519 885 674 209 82 493 151 710 173 36 3 67 8
70 10 15 8 276 18 460 18 188 -1 414 -10 450 -19 8 -2 42 -6 75 -10 183 -19
468 -77 675 -136 251 -73 527 -189 711 -301 l57 -34 -33 -79 c-73 -179 -208
-511 -280 -690 -103 -253 -88 -231 -139 -201 -185 108 -488 235 -731 306 -121
35 -372 86 -470 95 -38 3 -90 8 -115 11 -120 15 -440 5 -570 -16 -30 -5 -70
-12 -89 -15 -191 -32 -394 -136 -494 -253 -48 -57 -104 -157 -112 -202 -3 -14
-8 -45 -13 -70 -17 -89 -3 -197 36 -280 58 -124 192 -220 429 -306 161 -58
483 -152 588 -171 16 -2 153 -36 305 -74 151 -38 282 -71 290 -73 126 -31 507
-151 636 -201 265 -103 469 -237 661 -436 159 -164 260 -356 307 -582 8 -38
17 -72 20 -75 7 -7 11 -3 134 173 132 188 208 324 304 540 64 143 155 431 183
575 43 220 50 313 50 625 -1 255 -3 301 -25 435 -5 30 -11 71 -14 90 -8 49
-13 72 -31 143 -9 34 -19 73 -21 86 -11 53 -94 293 -138 396 -252 590 -673
1072 -1225 1405 -98 59 -270 145 -408 204 -142 61 -441 149 -583 171 -25 4
-56 10 -70 12 -36 7 -67 11 -135 18 -33 4 -76 9 -95 11 -48 6 -356 15 -361 10z"/>
</g>
</svg>
